{"title":"Shooter.2007.SWESUB.DVDRip.XviD-Zen_Bud","uid":5526375,"size":1471897832,"categoryP":"video","categoryS":"movies","magnet":"?xt=urn:btih:347e9a6b38bc1a1e87fbb79a1b010df907f8e6fa&amp;dn=Shooter.2007.SWESUB.DVDRip.XviD-Zen_Bud&amp;tr=udp%3A%2F%2Ftracker.openbittorrent.com%3A80&amp;tr=udp%3A%2F%2Fopen.demonii.com%3A1337&amp;tr=udp%3A%2F%2Ftracker.coppersurfer.tk%3A6969&amp;tr=udp%3A%2F%2Fexodus.desync.com%3A6969","seeders":1,"leechers":0,"uploader":"Zen_Bud","files":-1,"time":1272789301,"description":"General\nComplete name                    : Shooter.2007.SWESUB.DVDRip.XviD-Zen_Bud\nFormat                           : AVI\nFormat/Info                      : Audio Video Interleave\nFile size                        : 1.37 GiB\nDuration                         : 2h 5mn\nOverall bit rate                 : 1 561 Kbps\n\nVideo\nID                               : 0\nCodec ID/Hint                    : XviD\nDuration                         : 2h 5mn\nBit rate                         : 1 102 Kbps\nWidth                            : 720 pixels\nHeight                           : 564 pixels\nDisplay aspect ratio             : 16:9\nResolution                       : 8 bits\nColorimetry                      : 4:2:0\nBits/(Pixel*Frame)               : 0.109\nStream size                      : 991 MiB (71%)\nWriting library                  : XviD 1.1.2 (UTC 2006-11-01)\n\nAudio\nID                               : 1\nFormat                           : AC-3\nDuration                         : 2h 5mn\nBit rate mode                    : Constant\nBit rate                         : 448 Kbps\nChannel(s)                       : 6 channels\nChannel positions                : Front: L C R, Side: L R, LFE\nSampling rate                    : 48.0 KHz\nStream size                      : 403 MiB (29%)\n\n\n","torrent":{"xt":"urn:btih:347e9a6b38bc1a1e87fbb79a1b010df907f8e6fa","amp;dn":"Shooter.2007.SWESUB.DVDRip.XviD-Zen_Bud","amp;tr":["udp%3A%2F%2Ftracker.openbittorrent.com%3A80","udp%3A%2F%2Fopen.demonii.com%3A1337","udp%3A%2F%2Ftracker.coppersurfer.tk%3A6969","udp%3A%2F%2Fexodus.desync.com%3A6969"],"infoHash":"347e9a6b38bc1a1e87fbb79a1b010df907f8e6fa","infoHashBuffer":{"type":"Buffer","data":[52,126,154,107,56,188,26,30,135,251,183,154,27,1,13,249,7,248,230,250]},"announce":[],"urlList":[]}}